<?xml version="1.0" encoding="UTF-8"?>
<svg fill="#000000" height="64px" width="64px" version="1.1" id="Layer_1" xmlns="http://www.w3.org/2000/svg"
     xmlns:xlink="http://www.w3.org/1999/xlink"
     viewBox="0 0 24 24" xml:space="preserve">
    <g id="accident" fill="#fff">
	    <path d="M408.511,228.782l-6.487-50.936c-1.218-9.577-9.959-16.352-19.547-15.131c-9.576,1.219-16.35,9.97-15.131,19.547
			l5.267,41.367h-59.746c-0.379,0-0.755,0.013-1.129,0.029l-30.758-19.277c-6.275-3.931-14.344-3.485-20.145,1.117l-41.169,32.653
			c-7.563,5.998-8.832,16.993-2.833,24.556c6,7.565,16.995,8.83,24.556,2.833l31.494-24.978l12.024,7.536
			c-2.271,17.103,11.046,31.963,27.961,31.963h79.398c15.583,0,28.216-12.632,28.216-28.216
			C420.481,242.313,415.749,233.891,408.511,228.782z"/>
        <circle cx="460.777" cy="219.191" r="34.624"/>
        <path d="M185.892,66.463c-7.76-6.509-19.326-5.494-25.835,2.264l-14.939,17.808l6.614,49.186l36.424-43.422
			C194.665,84.539,193.65,72.971,185.892,66.463z"/>
        <path d="M93.744,32.959C84.928,22.73,70.901,17.577,56.811,20.764c-20.328,4.599-33.079,24.805-28.48,45.131
			c4.598,20.327,24.803,33.078,45.131,28.479c1.313-0.297,2.592-0.661,3.839-1.085l-3.326-24.738
			C71.919,53.259,80.356,38.982,93.744,32.959z"/>
        <path d="M171.376,468.489l-9.839-128.693c-0.28-3.659-1.471-7.19-3.464-10.273l-34.744-53.728l-13.704-96.927l-57.808-6.117
			l69.125-8.103c10.181-1.194,17.404-10.508,16.04-20.656l-11.082-82.421c-1.351-10.038-10.586-17.077-20.617-15.731
			C95.247,47.189,88.204,56.42,89.553,66.458l8.596,63.935l-50.602,5.932l33.931-11.958l-1.446-10.759c0,0-3.13-0.592-56.28,6.923
			C8.652,122.666-1.86,136.639,0.275,151.74L20.11,292.031l20.143,83.684l-22.948,88.951c-3.036,11.769,4.044,23.77,15.811,26.805
			c11.786,3.038,23.773-4.06,26.805-15.811l24.31-94.235c0.895-3.469,0.929-7.105,0.1-10.589L64.104,285.81l12.178-1.722
			l41.798,64.638l9.411,123.118c0.923,12.064,11.438,21.188,23.62,20.265C163.229,491.183,172.302,480.608,171.376,468.489z"/>
        <path d="M297.962,189.74c-0.129-0.196-3.197-4.873-9.036-11.779c-2.958-3.499-8.193-3.938-11.693-0.98
			c-3.499,2.958-3.938,8.194-0.98,11.693c5.058,5.981,7.735,10.016,7.818,10.145c2.506,3.829,7.641,4.91,11.48,2.405
			C299.388,198.719,300.468,193.577,297.962,189.74z"/>
        <path d="M267.316,156.134c-7.862-6.808-16.196-12.944-24.77-18.237c-3.9-2.41-9.013-1.197-11.419,2.702
			c-2.406,3.899-1.197,9.011,2.702,11.419c7.82,4.827,15.431,10.433,22.624,16.662c3.461,2.998,8.701,2.624,11.704-0.841
			C271.156,164.373,270.78,159.134,267.316,156.134z"/>
        <path d="M214.921,124.034c-4.525-1.777-9.164-3.365-13.787-4.717c-4.399-1.285-9.007,1.235-10.294,5.633
			c-1.287,4.398,1.235,9.007,5.633,10.294c4.149,1.215,8.315,2.64,12.38,4.237c4.273,1.676,9.084-0.431,10.757-4.689
			C221.286,130.527,219.186,125.71,214.921,124.034z"/>
        <path d="M495.404,297.129H247.163c-9.164,0-16.595,7.429-16.595,16.595c0,9.164,7.429,16.595,16.595,16.595h29.501l72.719,67.82
			l-73.098,68.172c-6.033,5.626-6.363,15.08-0.736,21.112c5.628,6.034,15.08,6.362,21.112,0.736l74.624-69.595l74.624,69.595
			c6.031,5.625,15.484,5.299,21.112-0.736c5.628-6.033,5.297-15.486-0.736-21.112l-73.098-68.172l72.719-67.82h29.5
			c9.164,0,16.595-7.429,16.595-16.595C511.999,304.56,504.568,297.129,495.404,297.129z M371.283,377.713l-50.817-47.394h101.635
			L371.283,377.713z"/>
    </g>

    <g id="man">
	<path fill="#231F20" d="M62.242,47.758l0.014-0.014c-5.847-4.753-12.84-8.137-20.491-9.722C44.374,35.479,46,31.932,46,28
		c1.657,0,3-1.343,3-3v-2c0-0.886-0.391-1.673-1-2.222V12c0-6.627-5.373-12-12-12h-8c-6.627,0-12,5.373-12,12v8.778
		c-0.609,0.549-1,1.336-1,2.222v2c0,1.657,1.343,3,3,3c0,3.932,1.626,7.479,4.236,10.022c-7.652,1.586-14.646,4.969-20.492,9.722
		l0.014,0.014C0.672,48.844,0,50.344,0,52v8c0,2.211,1.789,4,4,4h56c2.211,0,4-1.789,4-4v-8C64,50.344,63.328,48.844,62.242,47.758z
		 M20,28v-1c0-0.553-0.447-1-1-1h-1c-0.553,0-1-0.447-1-1v-2c0-0.553,0.447-1,1-1h1c0.553,0,1-0.447,1-1v-1v-1c0-2.209,1.791-4,4-4
		c2.088,0,3.926-1.068,5-2.687C30.074,13.932,31.912,15,34,15h6c2.209,0,4,1.791,4,4v1v1c0,0.553,0.447,1,1,1h1c0.553,0,1,0.447,1,1
		v2c0,0.553-0.447,1-1,1h-1c-0.553,0-1,0.447-1,1v1c0,6.627-5.373,12-12,12S20,34.627,20,28z M24.285,39.678
		C26.498,41.143,29.147,42,32,42s5.502-0.857,7.715-2.322c1.66,0.281,3.297,0.63,4.892,1.084C41.355,43.983,36.911,46,31.973,46
		c-4.932,0-9.371-2.011-12.621-5.226C20.96,40.315,22.61,39.961,24.285,39.678z"/>
        <path fill="#231F20" d="M24.537,21.862c0.475,0.255,1.073,0.068,1.345-0.396C25.91,21.419,26.18,21,26.998,21
		c0.808,0,1.096,0.436,1.111,0.458C28.287,21.803,28.637,22,28.999,22c0.154,0,0.311-0.035,0.457-0.111
		c0.491-0.253,0.684-0.856,0.431-1.347C29.592,19.969,28.651,19,26.998,19c-1.691,0-2.618,0.983-2.9,1.564
		C23.864,21.047,24.063,21.609,24.537,21.862z"/>
        <path fill="#231F20" d="M34.539,21.862c0.475,0.255,1.073,0.068,1.345-0.396C35.912,21.419,36.182,21,37,21
		c0.808,0,1.096,0.436,1.111,0.458C38.289,21.803,38.639,22,39.001,22c0.154,0,0.311-0.035,0.457-0.111
		c0.491-0.253,0.684-0.856,0.431-1.347C39.594,19.969,38.653,19,37,19c-1.691,0-2.618,0.983-2.9,1.564
		C33.866,21.047,34.065,21.609,34.539,21.862z"/>
</g>

    <g id="bottle" fill="#fff">

	<rect x="196.883" y="310.841" class="st0" width="62.56" height="16.175"/>
        <rect x="196.883" y="353.977" class="st0" width="62.56" height="16.182"/>
        <rect x="196.883" y="397.127" class="st0" width="62.56" height="16.175"/>
        <path class="st0" d="M369.161,189.766h-3.675c-0.198-0.621-0.396-1.229-0.628-1.865c-7.405-20.356-17.528-31.237-30.54-41.647
		c-18.515-14.809-44.68-13.743-49.206-33.341c-4.41-19.098,19.478-21.284,19.478-64.326C304.591,21.749,282.835,0,256.003,0
		c-26.838,0-48.587,21.749-48.587,48.587c0,43.041,23.881,45.227,19.478,64.326c-4.526,19.598-30.698,18.532-49.212,33.341
		c-13.006,10.41-23.136,21.292-30.54,41.647c-0.232,0.636-0.426,1.244-0.628,1.865h-3.678c-12.863,0-23.29,10.424-23.29,23.286
		v30.91c0,12.869,10.427,23.293,23.29,23.293h1.233v185.42c-0.007,8.156,1.656,15.991,4.665,23.102
		c4.512,10.663,12.018,19.686,21.479,26.08c9.454,6.394,20.932,10.15,33.177,10.144h105.221c8.152,0,15.994-1.66,23.098-4.666
		c10.662-4.515,19.686-12.015,26.087-21.483c6.394-9.454,10.144-20.936,10.136-33.177v-185.42h1.23
		c12.87,0,23.293-10.424,23.293-23.293v-30.91C392.455,200.19,382.031,189.766,369.161,189.766z M244.405,155.858l-75.781,53.041
		C183.782,133.111,244.405,155.858,244.405,155.858z M342.05,452.674c-0.006,4.652-0.935,9.024-2.623,13.013
		c-2.527,5.984-6.79,11.114-12.131,14.72c-5.352,3.607-11.718,5.704-18.686,5.704H203.389c-4.655,0-9.016-0.936-13.012-2.623
		c-5.98-2.527-11.114-6.776-14.724-12.125c-3.606-5.355-5.697-11.715-5.704-18.689v-185.42h26.274h119.552h26.274V452.674z"/>
    </g>

    <g id="stroller" fill="#fff">
        <path fill-rule="evenodd" clip-rule="evenodd"
              d="M18.4832 15.0004C19.4722 13.5203 20 11.7803 20 10.0002V8.23631C20 7.85754 20.214 7.51128 20.5528 7.34189L21.4472 6.89467C21.9412 6.64768 22.1414 6.04701 21.8944 5.55303C21.6474 5.05905 21.0468 4.85883 20.5528 5.10582L19.6584 5.55303C18.642 6.06121 18 7.1 18 8.23631V9.00024L12 9.00024V2.00024C12 1.44796 11.5523 1.00024 11 1.00024C9.21996 1.00024 7.47991 1.52808 5.99986 2.51702C4.51982 3.50595 3.36627 4.91156 2.68508 6.55609C2.00389 8.20063 1.82566 10.0102 2.17293 11.7561C2.5202 13.5019 3.37736 15.1055 4.63604 16.3642C4.88278 16.611 5.14279 16.8423 5.41453 17.0573C4.03795 17.3297 3 18.5437 3 20.0002C3 21.6571 4.34314 23.0002 6 23.0002C7.65685 23.0002 9 21.6571 9 20.0002C9 19.5356 8.89434 19.0955 8.70575 18.7029C8.88354 18.7498 9.0631 18.7913 9.24418 18.8273C10.5913 19.0953 11.9763 19.0504 13.2942 18.7029C13.1057 19.0955 13 19.5356 13 20.0002C13 21.6571 14.3431 23.0002 16 23.0002C17.6569 23.0002 19 21.6571 19 20.0002C19 18.5437 17.962 17.3297 16.5855 17.0573C17.3175 16.4779 17.9589 15.785 18.4832 15.0004ZM16.7834 13.8646C17.3611 13.0001 17.7352 12.0209 17.8834 11.0002L4.11656 11.0002C4.13389 11.1195 4.15435 11.2386 4.17795 11.3572C4.44634 12.7065 5.10881 13.9459 6.08158 14.9187C7.05435 15.8914 8.29374 16.5539 9.64301 16.8223C10.9923 17.0907 12.3908 16.9529 13.6618 16.4265C14.9328 15.9 16.0191 15.0085 16.7834 13.8646ZM10 3.1168V9.00024L4.11656 9.00024C4.19904 8.43247 4.35188 7.87411 4.57377 7.33842C5.10023 6.06743 5.99176 4.9811 7.13562 4.2168C8.0001 3.63917 8.97936 3.26508 10 3.1168ZM6 21.0079C5.44349 21.0079 4.99235 20.5568 4.99235 20.0002C4.99235 19.4437 5.44349 18.9926 6 18.9926C6.5565 18.9926 7.00764 19.4437 7.00764 20.0002C7.00764 20.5568 6.5565 21.0079 6 21.0079ZM14.9924 20.0002C14.9924 20.5568 15.4435 21.0079 16 21.0079C16.5565 21.0079 17.0076 20.5568 17.0076 20.0002C17.0076 19.4437 16.5565 18.9926 16 18.9926C15.4435 18.9926 14.9924 19.4437 14.9924 20.0002Z"/>
    </g>

    <g id="doctor">
        <path id="Vector"
              d="M9 20C9 20.5523 9.44772 21 10 21H14C14.5523 21 15 20.5523 15 20V15L20 15C20.5523 15 21 14.5523 21 14V10C21 9.44772 20.5523 9 20 9H15L15 4C15 3.44772 14.5523 3 14 3H10C9.44772 3 9 3.44772 9 4V9H4C3.44772 9 3 9.44772 3 10V14C3 14.5523 3.44772 15 4 15H9V20Z"
              stroke="#fff" stroke-width="2" stroke-linecap="round" stroke-linejoin="round"/>

    </g>

    <g id="football" fill="#fff">
        <path d="M27.5,24c1.6-2.3,2.5-5,2.5-8c0-2.7-0.8-5.2-2.1-7.3c0-0.1-0.1-0.1-0.1-0.2C25.3,4.6,21,2,16,2C11,2,6.6,4.6,4.2,8.6
	c0,0.1-0.1,0.1-0.1,0.2c-1.3,2.1-2,4.6-2,7.3c0,3,0.9,5.7,2.5,8c0,0,0.1,0.1,0.1,0.1C7.1,27.7,11.3,30,16,30c4.7,0,8.8-2.3,11.4-5.8
	C27.4,24.1,27.4,24.1,27.5,24z M26,22.5L22.4,23l-1.4-1.4l2-5.8l3.1-1.5l2,1.2c0,0.2,0,0.4,0,0.7C28,18.4,27.3,20.7,26,22.5z
	 M25.9,9.3l-0.8,3l-3.2,1.6L17,10.5V6.6l3.4-1.7c0,0,0,0,0,0C22.7,5.8,24.6,7.3,25.9,9.3z M11.5,4.9C11.5,4.9,11.5,4.9,11.5,4.9
	L15,6.6v3.9l-4.9,3.5l-3.3-1.6L6,9.3C7.4,7.3,9.3,5.8,11.5,4.9z M4,15.3l2-1.2l3.1,1.6l2,5.8l-1.4,1.4l-3.7-0.4
	C4.7,20.6,4,18.4,4,16C4,15.8,4,15.5,4,15.3z M12.9,27.6C12.9,27.6,12.9,27.6,12.9,27.6l-1.7-3.4l1.2-1.2h7.2l1.2,1.2l-1.7,3.4
	c0,0,0,0,0,0c-1,0.3-2,0.4-3.1,0.4S13.9,27.8,12.9,27.6z"/>
    </g>

    <g fill="#fff" id="book">
        <path d="M12 10.4V20M12 10.4C12 8.15979 12 7.03969 11.564 6.18404C11.1805 5.43139 10.5686 4.81947 9.81596 4.43597C8.96031 4 7.84021 4 5.6 4H4.6C4.03995 4 3.75992 4 3.54601 4.10899C3.35785 4.20487 3.20487 4.35785 3.10899 4.54601C3 4.75992 3 5.03995 3 5.6V16.4C3 16.9601 3 17.2401 3.10899 17.454C3.20487 17.6422 3.35785 17.7951 3.54601 17.891C3.75992 18 4.03995 18 4.6 18H7.54668C8.08687 18 8.35696 18 8.61814 18.0466C8.84995 18.0879 9.0761 18.1563 9.29191 18.2506C9.53504 18.3567 9.75977 18.5065 10.2092 18.8062L12 20M12 10.4C12 8.15979 12 7.03969 12.436 6.18404C12.8195 5.43139 13.4314 4.81947 14.184 4.43597C15.0397 4 16.1598 4 18.4 4H19.4C19.9601 4 20.2401 4 20.454 4.10899C20.6422 4.20487 20.7951 4.35785 20.891 4.54601C21 4.75992 21 5.03995 21 5.6V16.4C21 16.9601 21 17.2401 20.891 17.454C20.7951 17.6422 20.6422 17.7951 20.454 17.891C20.2401 18 19.9601 18 19.4 18H16.4533C15.9131 18 15.643 18 15.3819 18.0466C15.15 18.0879 14.9239 18.1563 14.7081 18.2506C14.465 18.3567 14.2402 18.5065 13.7908 18.8062L12 20"
              stroke="#000000" stroke-width="2" stroke-linecap="round" stroke-linejoin="round"/>

    </g>

    <g id="telegram">
     <path d="M22.122 10.040c0.006-0 0.014-0 0.022-0 0.209 0 0.403 0.065 0.562 0.177l-0.003-0.002c0.116 0.101 0.194 0.243 0.213 0.403l0 0.003c0.020 0.122 0.031 0.262 0.031 0.405 0 0.065-0.002 0.129-0.007 0.193l0-0.009c-0.225 2.369-1.201 8.114-1.697 10.766-0.21 1.123-0.623 1.499-1.023 1.535-0.869 0.081-1.529-0.574-2.371-1.126-1.318-0.865-2.063-1.403-3.342-2.246-1.479-0.973-0.52-1.51 0.322-2.384 0.221-0.23 4.052-3.715 4.127-4.031 0.004-0.019 0.006-0.040 0.006-0.062 0-0.078-0.029-0.149-0.076-0.203l0 0c-0.052-0.034-0.117-0.053-0.185-0.053-0.045 0-0.088 0.009-0.128 0.024l0.002-0.001q-0.198 0.045-6.316 4.174c-0.445 0.351-1.007 0.573-1.619 0.599l-0.006 0c-0.867-0.105-1.654-0.298-2.401-0.573l0.074 0.024c-0.938-0.306-1.683-0.467-1.619-0.985q0.051-0.404 1.114-0.827 6.548-2.853 8.733-3.761c1.607-0.853 3.47-1.555 5.429-2.010l0.157-0.031zM15.93 1.025c-8.302 0.020-15.025 6.755-15.025 15.060 0 8.317 6.742 15.060 15.060 15.060s15.060-6.742 15.060-15.060c0-8.305-6.723-15.040-15.023-15.060h-0.002q-0.035-0-0.070 0z"
           fill="#000000"></path>

    </g>

    <g id="vk" fill="#000000">
<path d="M15.07294,2H8.9375C3.33331,2,2,3.33331,2,8.92706V15.0625C2,20.66663,3.32294,22,8.92706,22H15.0625C20.66669,22,22,20.67706,22,15.07288V8.9375C22,3.33331,20.67706,2,15.07294,2Zm3.07287,14.27081H16.6875c-.55206,0-.71875-.44793-1.70831-1.4375-.86463-.83331-1.22919-.9375-1.44794-.9375-.30206,0-.38544.08332-.38544.5v1.3125c0,.35419-.11456.5625-1.04162.5625a5.69214,5.69214,0,0,1-4.44794-2.66668A11.62611,11.62611,0,0,1,5.35419,8.77081c0-.21875.08331-.41668.5-.41668H7.3125c.375,0,.51044.16668.65625.55212.70831,2.08331,1.91669,3.89581,2.40625,3.89581.1875,0,.27081-.08331.27081-.55206V10.10413c-.0625-.97913-.58331-1.0625-.58331-1.41663a.36008.36008,0,0,1,.375-.33337h2.29169c.3125,0,.41662.15625.41662.53125v2.89587c0,.3125.13544.41663.22919.41663.1875,0,.33331-.10413.67706-.44788a11.99877,11.99877,0,0,0,1.79169-2.97919.62818.62818,0,0,1,.63544-.41668H17.9375c.4375,0,.53125.21875.4375.53125A18.20507,18.20507,0,0,1,16.41669,12.25c-.15625.23956-.21875.36456,0,.64581.14581.21875.65625.64582,1,1.05207a6.48553,6.48553,0,0,1,1.22912,1.70837C18.77081,16.0625,18.5625,16.27081,18.14581,16.27081Z"/>    </g>

    <g id="ap" fill="none" stroke="#000000">
        <path class="a" d="M5.5,19.6V40.5a2,2,0,0,0,2,2h33a2,2,0,0,0,2-2V7.5a2,2,0,0,0-2-2H7.5a2,2,0,0,0-2,2V19.6"/>
        <path class="a" d="M25.7547,33.6191V14.3809h6.2982a6.461,6.461,0,0,1,0,12.922H25.7547"/>
        <line class="a" x1="9.5" y1="33.562" x2="15.8847" y2="14.3809"/>
        <line class="a" x1="22.0048" y1="33.6191" x2="15.8847" y2="14.3809"/>
        <line class="a" x1="19.9575" y1="27.1836" x2="11.6231" y2="27.1836"/>
    </g>

    <g id="circleText" fill="none" stroke="#000000">
        <title>Red Hot Chilli Peppers Logo</title>
        <defs>
        <path d="M243.2, 382.4c-74.8,
    0-135.5-60.7-135.5-135.5s60.7-135.5,135.5-135.5s135.5, 60.7, 135.5,
    135.5 S318, 382.4, 243.2, 382.4z" id="textcircle"/>
            <style>
            text {
            font-size: 900px;
            font-family: Franklin Gothic, sans-serif;
            font-weight: 100;
            text-transform: uppercase;
            letter-spacing: 1px;
            }
        </style>
    </defs>
        <text dy="2" textLength="600">
        <textPath xlink:href="#textcircle">
            Red Hot Chilli Peppers
        </textPath>
    </text>
    </g>

    <g id="circleText2" fill="#000000" stroke="#000000">
    <defs>
        <path id="MyPath"
          d="M 0 100 C 400 400 700 250 1200 -750"/>
  </defs>
        <text font-family="Epilogue" font-size="95" fill="black">
    <textPath xlink:href="#MyPath">
      PAPА Troih detey
    </textPath>
  </text>
    </g>

</svg>