<?xml version="1.0" encoding="iso-8859-1"?>
<svg fill="#000000" height="64px" width="64px" version="1.1" id="Layer_1" xmlns="http://www.w3.org/2000/svg"
     xmlns:xlink="http://www.w3.org/1999/xlink"
     viewBox="0 0 24 24" xml:space="preserve">
    <g id="accident">
	    <path d="M408.511,228.782l-6.487-50.936c-1.218-9.577-9.959-16.352-19.547-15.131c-9.576,1.219-16.35,9.97-15.131,19.547
			l5.267,41.367h-59.746c-0.379,0-0.755,0.013-1.129,0.029l-30.758-19.277c-6.275-3.931-14.344-3.485-20.145,1.117l-41.169,32.653
			c-7.563,5.998-8.832,16.993-2.833,24.556c6,7.565,16.995,8.83,24.556,2.833l31.494-24.978l12.024,7.536
			c-2.271,17.103,11.046,31.963,27.961,31.963h79.398c15.583,0,28.216-12.632,28.216-28.216
			C420.481,242.313,415.749,233.891,408.511,228.782z"/>
        <circle cx="460.777" cy="219.191" r="34.624"/>
        <path d="M185.892,66.463c-7.76-6.509-19.326-5.494-25.835,2.264l-14.939,17.808l6.614,49.186l36.424-43.422
			C194.665,84.539,193.65,72.971,185.892,66.463z"/>
        <path d="M93.744,32.959C84.928,22.73,70.901,17.577,56.811,20.764c-20.328,4.599-33.079,24.805-28.48,45.131
			c4.598,20.327,24.803,33.078,45.131,28.479c1.313-0.297,2.592-0.661,3.839-1.085l-3.326-24.738
			C71.919,53.259,80.356,38.982,93.744,32.959z"/>
        <path d="M171.376,468.489l-9.839-128.693c-0.28-3.659-1.471-7.19-3.464-10.273l-34.744-53.728l-13.704-96.927l-57.808-6.117
			l69.125-8.103c10.181-1.194,17.404-10.508,16.04-20.656l-11.082-82.421c-1.351-10.038-10.586-17.077-20.617-15.731
			C95.247,47.189,88.204,56.42,89.553,66.458l8.596,63.935l-50.602,5.932l33.931-11.958l-1.446-10.759c0,0-3.13-0.592-56.28,6.923
			C8.652,122.666-1.86,136.639,0.275,151.74L20.11,292.031l20.143,83.684l-22.948,88.951c-3.036,11.769,4.044,23.77,15.811,26.805
			c11.786,3.038,23.773-4.06,26.805-15.811l24.31-94.235c0.895-3.469,0.929-7.105,0.1-10.589L64.104,285.81l12.178-1.722
			l41.798,64.638l9.411,123.118c0.923,12.064,11.438,21.188,23.62,20.265C163.229,491.183,172.302,480.608,171.376,468.489z"/>
        <path d="M297.962,189.74c-0.129-0.196-3.197-4.873-9.036-11.779c-2.958-3.499-8.193-3.938-11.693-0.98
			c-3.499,2.958-3.938,8.194-0.98,11.693c5.058,5.981,7.735,10.016,7.818,10.145c2.506,3.829,7.641,4.91,11.48,2.405
			C299.388,198.719,300.468,193.577,297.962,189.74z"/>
    <path d="M267.316,156.134c-7.862-6.808-16.196-12.944-24.77-18.237c-3.9-2.41-9.013-1.197-11.419,2.702
			c-2.406,3.899-1.197,9.011,2.702,11.419c7.82,4.827,15.431,10.433,22.624,16.662c3.461,2.998,8.701,2.624,11.704-0.841
			C271.156,164.373,270.78,159.134,267.316,156.134z"/>
    <path d="M214.921,124.034c-4.525-1.777-9.164-3.365-13.787-4.717c-4.399-1.285-9.007,1.235-10.294,5.633
			c-1.287,4.398,1.235,9.007,5.633,10.294c4.149,1.215,8.315,2.64,12.38,4.237c4.273,1.676,9.084-0.431,10.757-4.689
			C221.286,130.527,219.186,125.71,214.921,124.034z"/>
    <path d="M495.404,297.129H247.163c-9.164,0-16.595,7.429-16.595,16.595c0,9.164,7.429,16.595,16.595,16.595h29.501l72.719,67.82
			l-73.098,68.172c-6.033,5.626-6.363,15.08-0.736,21.112c5.628,6.034,15.08,6.362,21.112,0.736l74.624-69.595l74.624,69.595
			c6.031,5.625,15.484,5.299,21.112-0.736c5.628-6.033,5.297-15.486-0.736-21.112l-73.098-68.172l72.719-67.82h29.5
			c9.164,0,16.595-7.429,16.595-16.595C511.999,304.56,504.568,297.129,495.404,297.129z M371.283,377.713l-50.817-47.394h101.635
			L371.283,377.713z"/>
    </g>

    <g id="man">
	<path fill="#231F20" d="M62.242,47.758l0.014-0.014c-5.847-4.753-12.84-8.137-20.491-9.722C44.374,35.479,46,31.932,46,28
		c1.657,0,3-1.343,3-3v-2c0-0.886-0.391-1.673-1-2.222V12c0-6.627-5.373-12-12-12h-8c-6.627,0-12,5.373-12,12v8.778
		c-0.609,0.549-1,1.336-1,2.222v2c0,1.657,1.343,3,3,3c0,3.932,1.626,7.479,4.236,10.022c-7.652,1.586-14.646,4.969-20.492,9.722
		l0.014,0.014C0.672,48.844,0,50.344,0,52v8c0,2.211,1.789,4,4,4h56c2.211,0,4-1.789,4-4v-8C64,50.344,63.328,48.844,62.242,47.758z
		 M20,28v-1c0-0.553-0.447-1-1-1h-1c-0.553,0-1-0.447-1-1v-2c0-0.553,0.447-1,1-1h1c0.553,0,1-0.447,1-1v-1v-1c0-2.209,1.791-4,4-4
		c2.088,0,3.926-1.068,5-2.687C30.074,13.932,31.912,15,34,15h6c2.209,0,4,1.791,4,4v1v1c0,0.553,0.447,1,1,1h1c0.553,0,1,0.447,1,1
		v2c0,0.553-0.447,1-1,1h-1c-0.553,0-1,0.447-1,1v1c0,6.627-5.373,12-12,12S20,34.627,20,28z M24.285,39.678
		C26.498,41.143,29.147,42,32,42s5.502-0.857,7.715-2.322c1.66,0.281,3.297,0.63,4.892,1.084C41.355,43.983,36.911,46,31.973,46
		c-4.932,0-9.371-2.011-12.621-5.226C20.96,40.315,22.61,39.961,24.285,39.678z"/>
        <path fill="#231F20" d="M24.537,21.862c0.475,0.255,1.073,0.068,1.345-0.396C25.91,21.419,26.18,21,26.998,21
		c0.808,0,1.096,0.436,1.111,0.458C28.287,21.803,28.637,22,28.999,22c0.154,0,0.311-0.035,0.457-0.111
		c0.491-0.253,0.684-0.856,0.431-1.347C29.592,19.969,28.651,19,26.998,19c-1.691,0-2.618,0.983-2.9,1.564
		C23.864,21.047,24.063,21.609,24.537,21.862z"/>
        <path fill="#231F20" d="M34.539,21.862c0.475,0.255,1.073,0.068,1.345-0.396C35.912,21.419,36.182,21,37,21
		c0.808,0,1.096,0.436,1.111,0.458C38.289,21.803,38.639,22,39.001,22c0.154,0,0.311-0.035,0.457-0.111
		c0.491-0.253,0.684-0.856,0.431-1.347C39.594,19.969,38.653,19,37,19c-1.691,0-2.618,0.983-2.9,1.564
		C33.866,21.047,34.065,21.609,34.539,21.862z"/>
</g>
    <g id="telegram">
        <path d="M12 4C10.4178 4 8.87103 4.46919 7.55544 5.34824C6.23985 6.22729 5.21447 7.47672 4.60897 8.93853C4.00347 10.4003 3.84504 12.0089 4.15372 13.5607C4.4624 15.1126 5.22433 16.538 6.34315 17.6569C7.46197 18.7757 8.88743 19.5376 10.4393 19.8463C11.9911 20.155 13.5997 19.9965 15.0615 19.391C16.5233 18.7855 17.7727 17.7602 18.6518 16.4446C19.5308 15.129 20 13.5823 20 12C20 9.87827 19.1571 7.84344 17.6569 6.34315C16.1566 4.84285 14.1217 4 12 4ZM15.93 9.48L14.62 15.67C14.52 16.11 14.26 16.21 13.89 16.01L11.89 14.53L10.89 15.46C10.8429 15.5215 10.7824 15.5715 10.7131 15.6062C10.6438 15.6408 10.5675 15.6592 10.49 15.66L10.63 13.66L14.33 10.31C14.5 10.17 14.33 10.09 14.09 10.23L9.55 13.08L7.55 12.46C7.12 12.33 7.11 12.03 7.64 11.83L15.35 8.83C15.73 8.72 16.05 8.94 15.93 9.48Z" fill="#000000"/>
    </g>

    <g id="vk">
        <path d="M10 .4C4.698.4.4 4.698.4 10s4.298 9.6 9.6 9.6 9.6-4.298 9.6-9.6S15.302.4 10 .4zm3.692 10.831s.849.838 1.058 1.227c.006.008.009.016.011.02.085.143.105.254.063.337-.07.138-.31.206-.392.212h-1.5c-.104 0-.322-.027-.586-.209-.203-.142-.403-.375-.598-.602-.291-.338-.543-.63-.797-.63a.305.305 0 0 0-.095.015c-.192.062-.438.336-.438 1.066 0 .228-.18.359-.307.359h-.687c-.234 0-1.453-.082-2.533-1.221-1.322-1.395-2.512-4.193-2.522-4.219-.075-.181.08-.278.249-.278h1.515c.202 0 .268.123.314.232.054.127.252.632.577 1.2.527.926.85 1.302 1.109 1.302a.3.3 0 0 0 .139-.036c.338-.188.275-1.393.26-1.643 0-.047-.001-.539-.174-.775-.124-.171-.335-.236-.463-.26a.55.55 0 0 1 .199-.169c.232-.116.65-.133 1.065-.133h.231c.45.006.566.035.729.076.33.079.337.292.308 1.021-.009.207-.018.441-.018.717 0 .06-.003.124-.003.192-.01.371-.022.792.24.965a.216.216 0 0 0 .114.033c.091 0 .365 0 1.107-1.273a9.718 9.718 0 0 0 .595-1.274c.015-.026.059-.106.111-.137a.266.266 0 0 1 .124-.029h1.781c.194 0 .327.029.352.104.044.119-.008.482-.821 1.583l-.363.479c-.737.966-.737 1.015.046 1.748z"/>
    </g>

<!--    <svg width="64px" height="64px" viewBox="-3.12 -3.12 30.24 30.24" fill="none" xmlns="http://www.w3.org/2000/svg" stroke="#000000" stroke-width="0.00024000000000000003" transform="rotate(0)"><g id="SVGRepo_bgCarrier" stroke-width="0"></g><g id="SVGRepo_tracerCarrier" stroke-linecap="round" stroke-linejoin="round" stroke="#CCCCCC" stroke-width="0.048"></g><g id="SVGRepo_iconCarrier"> <path fill-rule="evenodd" clip-rule="evenodd" d="M18.4832 15.0004C19.4722 13.5203 20 11.7803 20 10.0002V8.23631C20 7.85754 20.214 7.51128 20.5528 7.34189L21.4472 6.89467C21.9412 6.64768 22.1414 6.04701 21.8944 5.55303C21.6474 5.05905 21.0468 4.85883 20.5528 5.10582L19.6584 5.55303C18.642 6.06121 18 7.1 18 8.23631V9.00024L12 9.00024V2.00024C12 1.44796 11.5523 1.00024 11 1.00024C9.21996 1.00024 7.47991 1.52808 5.99986 2.51702C4.51982 3.50595 3.36627 4.91156 2.68508 6.55609C2.00389 8.20063 1.82566 10.0102 2.17293 11.7561C2.5202 13.5019 3.37736 15.1055 4.63604 16.3642C4.88278 16.611 5.14279 16.8423 5.41453 17.0573C4.03795 17.3297 3 18.5437 3 20.0002C3 21.6571 4.34314 23.0002 6 23.0002C7.65685 23.0002 9 21.6571 9 20.0002C9 19.5356 8.89434 19.0955 8.70575 18.7029C8.88354 18.7498 9.0631 18.7913 9.24418 18.8273C10.5913 19.0953 11.9763 19.0504 13.2942 18.7029C13.1057 19.0955 13 19.5356 13 20.0002C13 21.6571 14.3431 23.0002 16 23.0002C17.6569 23.0002 19 21.6571 19 20.0002C19 18.5437 17.962 17.3297 16.5855 17.0573C17.3175 16.4779 17.9589 15.785 18.4832 15.0004ZM16.7834 13.8646C17.3611 13.0001 17.7352 12.0209 17.8834 11.0002L4.11656 11.0002C4.13389 11.1195 4.15435 11.2386 4.17795 11.3572C4.44634 12.7065 5.10881 13.9459 6.08158 14.9187C7.05435 15.8914 8.29374 16.5539 9.64301 16.8223C10.9923 17.0907 12.3908 16.9529 13.6618 16.4265C14.9328 15.9 16.0191 15.0085 16.7834 13.8646ZM10 3.1168V9.00024L4.11656 9.00024C4.19904 8.43247 4.35188 7.87411 4.57377 7.33842C5.10023 6.06743 5.99176 4.9811 7.13562 4.2168C8.0001 3.63917 8.97936 3.26508 10 3.1168ZM6 21.0079C5.44349 21.0079 4.99235 20.5568 4.99235 20.0002C4.99235 19.4437 5.44349 18.9926 6 18.9926C6.5565 18.9926 7.00764 19.4437 7.00764 20.0002C7.00764 20.5568 6.5565 21.0079 6 21.0079ZM14.9924 20.0002C14.9924 20.5568 15.4435 21.0079 16 21.0079C16.5565 21.0079 17.0076 20.5568 17.0076 20.0002C17.0076 19.4437 16.5565 18.9926 16 18.9926C15.4435 18.9926 14.9924 19.4437 14.9924 20.0002Z" fill="#0F0F0F"></path> </g></svg>-->
<!--    <svg width="64px" height="64px" viewBox="0 0 24.00 24.00" fill="none" xmlns="http://www.w3.org/2000/svg" stroke="#000000" stroke-width="0.00024000000000000003" transform="rotate(0)"><g id="SVGRepo_bgCarrier" stroke-width="0"></g><g id="SVGRepo_tracerCarrier" stroke-linecap="round" stroke-linejoin="round" stroke="#CCCCCC" stroke-width="0.048"></g><g id="SVGRepo_iconCarrier"> <path fill-rule="evenodd" clip-rule="evenodd" d="M18.4832 15.0004C19.4722 13.5203 20 11.7803 20 10.0002V8.23631C20 7.85754 20.214 7.51128 20.5528 7.34189L21.4472 6.89467C21.9412 6.64768 22.1414 6.04701 21.8944 5.55303C21.6474 5.05905 21.0468 4.85883 20.5528 5.10582L19.6584 5.55303C18.642 6.06121 18 7.1 18 8.23631V9.00024L12 9.00024V2.00024C12 1.44796 11.5523 1.00024 11 1.00024C9.21996 1.00024 7.47991 1.52808 5.99986 2.51702C4.51982 3.50595 3.36627 4.91156 2.68508 6.55609C2.00389 8.20063 1.82566 10.0102 2.17293 11.7561C2.5202 13.5019 3.37736 15.1055 4.63604 16.3642C4.88278 16.611 5.14279 16.8423 5.41453 17.0573C4.03795 17.3297 3 18.5437 3 20.0002C3 21.6571 4.34314 23.0002 6 23.0002C7.65685 23.0002 9 21.6571 9 20.0002C9 19.5356 8.89434 19.0955 8.70575 18.7029C8.88354 18.7498 9.0631 18.7913 9.24418 18.8273C10.5913 19.0953 11.9763 19.0504 13.2942 18.7029C13.1057 19.0955 13 19.5356 13 20.0002C13 21.6571 14.3431 23.0002 16 23.0002C17.6569 23.0002 19 21.6571 19 20.0002C19 18.5437 17.962 17.3297 16.5855 17.0573C17.3175 16.4779 17.9589 15.785 18.4832 15.0004ZM16.7834 13.8646C17.3611 13.0001 17.7352 12.0209 17.8834 11.0002L4.11656 11.0002C4.13389 11.1195 4.15435 11.2386 4.17795 11.3572C4.44634 12.7065 5.10881 13.9459 6.08158 14.9187C7.05435 15.8914 8.29374 16.5539 9.64301 16.8223C10.9923 17.0907 12.3908 16.9529 13.6618 16.4265C14.9328 15.9 16.0191 15.0085 16.7834 13.8646ZM10 3.1168V9.00024L4.11656 9.00024C4.19904 8.43247 4.35188 7.87411 4.57377 7.33842C5.10023 6.06743 5.99176 4.9811 7.13562 4.2168C8.0001 3.63917 8.97936 3.26508 10 3.1168ZM6 21.0079C5.44349 21.0079 4.99235 20.5568 4.99235 20.0002C4.99235 19.4437 5.44349 18.9926 6 18.9926C6.5565 18.9926 7.00764 19.4437 7.00764 20.0002C7.00764 20.5568 6.5565 21.0079 6 21.0079ZM14.9924 20.0002C14.9924 20.5568 15.4435 21.0079 16 21.0079C16.5565 21.0079 17.0076 20.5568 17.0076 20.0002C17.0076 19.4437 16.5565 18.9926 16 18.9926C15.4435 18.9926 14.9924 19.4437 14.9924 20.0002Z" fill="#0F0F0F"></path> </g></svg>-->

</svg>